<?xml version="1.0" encoding="utf-8"?>
<!-- Generator: Adobe Illustrator 25.0.0, SVG Export Plug-In . SVG Version: 6.00 Build 0)  -->
<svg version="1.1" id="Layer_1" xmlns="http://www.w3.org/2000/svg" xmlns:xlink="http://www.w3.org/1999/xlink" x="0px" y="0px"
	 viewBox="0 0 3710 3710" style="enable-background:new 0 0 3710 3710;" xml:space="preserve">
<style type="text/css">
	.st0{fill:#FFFFFF;}
	.st1{fill:url(#SVGID_1_);}
	.st2{fill:#BDDEFB;}
	.st3{opacity:0.6;fill:#FFFFFF;enable-background:new    ;}
	.st4{fill:#91CAFA;}
	.st5{fill:url(#SVGID_2_);}
	.st6{opacity:0.5;fill:#FFFFFF;enable-background:new    ;}
	.st7{fill:#7DAEF4;}
	.st8{fill:url(#SVGID_3_);}
	.st9{fill:url(#SVGID_4_);}
	.st10{fill:url(#SVGID_5_);}
	.st11{fill:url(#SVGID_6_);}
	.st12{opacity:0.7;fill:#FFFFFF;enable-background:new    ;}
	.st13{fill:url(#SVGID_7_);}
	.st14{clip-path:url(#SVGID_9_);}
	.st15{fill:url(#SVGID_10_);}
	.st16{fill:url(#SVGID_11_);}
	.st17{fill:url(#SVGID_12_);}
	.st18{fill:url(#SVGID_13_);}
	.st19{fill:url(#SVGID_14_);}
	.st20{fill:url(#SVGID_15_);}
	.st21{fill:url(#SVGID_16_);}
	.st22{fill:url(#SVGID_17_);}
	.st23{fill:url(#SVGID_18_);}
	.st24{fill:url(#SVGID_19_);}
	.st25{fill:url(#SVGID_20_);}
	.st26{fill:url(#SVGID_21_);}
	.st27{fill:url(#SVGID_22_);}
	.st28{fill:url(#SVGID_23_);}
	.st29{fill:url(#SVGID_24_);}
	.st30{fill:url(#SVGID_25_);}
	.st31{fill:url(#SVGID_26_);}
	.st32{fill:url(#SVGID_27_);}
	.st33{fill:url(#SVGID_28_);}
	.st34{fill:url(#SVGID_29_);}
	.st35{fill:url(#SVGID_30_);}
	.st36{fill:url(#SVGID_31_);}
	.st37{fill:url(#SVGID_32_);}
	.st38{fill:url(#SVGID_33_);}
	.st39{fill:url(#SVGID_34_);}
	.st40{fill:url(#SVGID_35_);}
	.st41{fill:url(#SVGID_36_);}
	.st42{fill:url(#SVGID_37_);}
	.st43{fill:url(#SVGID_38_);}
	.st44{fill:url(#SVGID_39_);}
	.st45{fill:url(#SVGID_40_);}
	.st46{fill:url(#SVGID_41_);}
	.st47{opacity:0.23;fill:#FFFFFF;enable-background:new    ;}
	.st48{fill:url(#SVGID_42_);}
	.st49{fill:url(#SVGID_43_);}
	.st50{fill:url(#SVGID_44_);}
	.st51{fill:url(#SVGID_45_);}
	.st52{fill:url(#SVGID_46_);}
	.st53{fill:url(#SVGID_47_);}
	.st54{opacity:0.78;fill:#FFFFFF;enable-background:new    ;}
	.st55{fill:url(#SVGID_48_);}
</style>
<g id="Background">
	<g>
		<g>
			<rect class="st0" width="3710" height="3710"/>
		</g>
	</g>
</g>
<g id="Illustration">
	<path class="st0" d="M3462.5,1556.1C3462.5,1556.1,3462.5,1556.1,3462.5,1556.1c-1-0.1-1.7-0.8-1.7-1.8c0.3-5.3,0.9-10.7,1.9-16
		c0.2-0.9,1-1.5,1.9-1.3c0.9,0.2,1.5,1,1.3,1.9c-0.9,5.1-1.5,10.3-1.8,15.6C3464.1,1555.4,3463.4,1556.1,3462.5,1556.1z"/>
	<g>
		
			<linearGradient id="SVGID_1_" gradientUnits="userSpaceOnUse" x1="440.8478" y1="1852.1791" x2="3238.1553" y2="1852.1791" gradientTransform="matrix(1 0 0 -1 0 3710)">
			<stop  offset="0" style="stop-color:#DAEBFE"/>
			<stop  offset="1" style="stop-color:#E9F3FD"/>
		</linearGradient>
		<path class="st1" d="M2913.9,2867.7c-57.4,60.5-111.8,99.5-154.7,130.3c-504.8,362.2-1102,256.6-1229,230.8
			c-187.4-38.1-549.8-111.7-811.7-419.7c-396.3-466.1-334.6-1200.3-27.2-1685c56.2-88.7,353.3-580.7,957-659.7
			c365.3-47.8,791.2,48.6,1099.7,307C3395.3,1313.7,3349.2,2409.4,2913.9,2867.7z"/>
		<g>
			<g>
				<path class="st2" d="M2449.5,2202.9c0,0-9.1-381,166.4-483s509.1-165.7,521.7-712.8c7.3-320.3,15.2-460.3,20.6-521.4
					c2.1-23.8-19.1-43-42.6-38.6c-166.2,31.3-706.1,160.2-819.3,528.7C2162.1,1412.7,2449.5,2202.9,2449.5,2202.9z"/>
				<path class="st3" d="M2987,599.3c-182.4,162.7-393.4,450.7-505.8,738.6c-14.4,47.5-56.6,148.4-75,327.7
					c-16.4,149.6-8.2,307.6,11.6,412.2c1.3,6.6,7.6,11,14.2,9.7c11.4-2.2,9.9-14.4,9.8-14c-22.7-178.7-13.3-401.2,38.7-601.9
					c66.4-246.5,214.4-485.4,367.6-688.1l15.8-20c118.6-152.4,143.6-153.5,132.5-164.1C2993.8,597,2989.7,597,2987,599.3z"/>
			</g>
			<g>
				<path class="st4" d="M2177.7,2874.3c-23.7,11.6,224.8-300.9,302.6-791.7c36.7-231.3,37.2-521.1,168.9-632.7
					c109.6-92.9,482.8-34.3,604.9-12c15.3,2.8,20.4,22.1,8.5,32c-58.6,49.2-183.8,165.2-216.4,282
					c-43,154.1-189.5,252.1-320.6,278.6c-131.1,26.5-204.1,52.3-268,262C2393.7,2502.2,2245.2,2841.2,2177.7,2874.3z"/>
				<path class="st3" d="M3082.4,1503c-155.8,6.5-323,77.6-407.8,210.9l-8,12.7c-18.5,29.8-123.3,241.8-181.6,417.5
					c-0.7,2.2,0.5,4.6,2.6,5.3c3.7,1.2,5.6-2.9,5.2-2.5c40.6-99.3,98.8-225.1,145.2-319.3c49.8-102.7,84.6-172.3,198.1-238.9
					c126.3-71.8,247-79.1,246.7-79.1c1.8-0.2,3.2-1.8,3-3.7C3085.7,1504.2,3084.1,1502.9,3082.4,1503z"/>
			</g>
		</g>
		<g>
			<g>
				
					<linearGradient id="SVGID_2_" gradientUnits="userSpaceOnUse" x1="1849.1183" y1="3590.4648" x2="1695.1892" y2="1763.8353" gradientTransform="matrix(1 0 0 -1 0 3710)">
					<stop  offset="0" style="stop-color:#00025D"/>
					<stop  offset="1" style="stop-color:#0F1491"/>
				</linearGradient>
				<path class="st5" d="M877.7,677.3c-8.9,420.1-37.8,1869-24,2382.5c1.5,54.4,38.7,98.1,85.2,99.8
					c230,8.8,1073.1,31.1,1449.2,12.7c78.4-3.9,140.6-78.1,142.3-169.8c7.8-440.9,25.1-1681-15.9-2249.1
					c-4.9-68.1-50.6-122.3-108.7-129.1C2155.4,595,1308.7,523.3,983.7,548C925.1,552.4,879.2,608.6,877.7,677.3z"/>
				<path class="st4" d="M980.3,806.2c-12.4,339.1-51.4,1467-39,1884.1c1.8,61,42.9,110.3,94.9,113.8
					c214.3,14.7,945.6,47,1259.9,17.6c56.6-5.3,101-58.9,104.1-125.2c15.9-345.9,61.7-1396.2,49.8-1808.6
					c-1.9-65.8-45.5-119.5-101.5-125.4c-231.9-24.4-1008.9-82.3-1276-65.2C1022.3,700.4,982.5,747.5,980.3,806.2z"/>
				<path class="st6" d="M1446.1,621.4L1446.1,621.4c0,12.9,8.6,23.5,19.6,24.2c54.3,3.3,207.3,12.7,275.7,17.4
					c13.5,0.9,24.1-13.3,21.5-28.8l-0.4-2.7c-1.8-10.6-9.2-18.5-18.4-19.5c-46.2-5-185.7-18.7-278.1-14.8
					C1454.8,597.6,1446.1,608.4,1446.1,621.4z"/>
			</g>
			<g>
				<path class="st4" d="M2232.8,1994c34.9-86.7,49.5-182.9,38.6-282.3c-4.4-40.2-12.8-78.9-24.8-115.9L1690,1775.9L2232.8,1994z"/>
				<path class="st7" d="M2246.6,1595.8c-41.4-128.4-125.3-235.7-233.7-307.6L1690,1775.9L2246.6,1595.8z"/>
				
					<linearGradient id="SVGID_3_" gradientUnits="userSpaceOnUse" x1="1105.0726" y1="1942.2999" x2="1690.01" y2="1942.2999" gradientTransform="matrix(1 0 0 -1 0 3710)">
					<stop  offset="0" style="stop-color:#4F67FF"/>
					<stop  offset="1" style="stop-color:#4056E2"/>
				</linearGradient>
				<path class="st8" d="M1690,1775.9L1392.7,1272c-191.9,113.4-310.1,332-284.1,568c22.1,200.3,115.3,335.8,281,423.4L1690,1775.9z
					"/>
				
					<linearGradient id="SVGID_4_" gradientUnits="userSpaceOnUse" x1="568.7648" y1="2894.9717" x2="-129.5716" y2="3537.4421" gradientTransform="matrix(0.1097 0.994 0.994 -0.1097 -1342.7091 1485.2637)">
					<stop  offset="0" style="stop-color:#FE802B"/>
					<stop  offset="1" style="stop-color:#FF6803"/>
				</linearGradient>
				<path class="st9" d="M2012.9,1288.2c-48.5-32.2-101.9-57.2-158.6-73.8c-57.9,214.7-164.3,561.5-164.3,561.5L2012.9,1288.2z"/>
				
					<linearGradient id="SVGID_5_" gradientUnits="userSpaceOnUse" x1="329.0948" y1="3705.5918" x2="329.0948" y2="2686.9209" gradientTransform="matrix(0.1097 0.994 0.994 -0.1097 -1342.7091 1485.2637)">
					<stop  offset="0" style="stop-color:#E07F00"/>
					<stop  offset="1" style="stop-color:#E9B25A"/>
				</linearGradient>
				<path class="st10" d="M1854.3,1214.4c-72-21.1-149.2-28.6-228.4-19.9c-85.1,9.4-163.9,36.6-233.1,77.5l297.3,503.9
					C1690,1775.9,1796.4,1429.1,1854.3,1214.4z"/>
				<path class="st2" d="M1239.1,2152.9c118.8,122.2,256.7,207.9,515.1,204.3c251.3-3.5,400.7-169.9,478.6-363.2L1690,1775.9
					L1239.1,2152.9z"/>
			</g>
			<g>
				<g>
					<path class="st0" d="M993.6,1110.1c-1.2,0-2.5-0.4-3.5-1.3l-12.6-11.5c-2.1-1.9-2.2-5.2-0.3-7.2c1.9-2.1,5.2-2.2,7.2-0.3
						l12.6,11.5c2.1,1.9,2.2,5.2,0.3,7.2C996.4,1109.6,995,1110.1,993.6,1110.1z"/>
					<path class="st0" d="M1209.6,1307c-1.2,0-2.5-0.4-3.5-1.3l-27-24.6c-2.1-1.9-2.2-5.2-0.3-7.2c1.9-2.1,5.2-2.2,7.2-0.3l27,24.6
						c2.1,1.9,2.2,5.2,0.3,7.2C1212.4,1306.4,1211,1307,1209.6,1307z M1155.6,1257.8c-1.2,0-2.5-0.4-3.5-1.3l-27-24.6
						c-2.1-1.9-2.2-5.2-0.3-7.2s5.2-2.2,7.2-0.3l27,24.6c2.1,1.9,2.2,5.2,0.3,7.2C1158.4,1257.2,1157,1257.8,1155.6,1257.8z
						 M1101.6,1208.5c-1.2,0-2.5-0.4-3.5-1.3l-27-24.6c-2.1-1.9-2.2-5.2-0.3-7.2c1.9-2.1,5.2-2.2,7.2-0.3l27,24.6
						c2.1,1.9,2.2,5.2,0.3,7.2C1104.4,1208,1103,1208.5,1101.6,1208.5z M1047.6,1159.3c-1.2,0-2.5-0.4-3.5-1.3l-27-24.6
						c-2.1-1.9-2.2-5.2-0.3-7.2c1.9-2.1,5.2-2.2,7.3-0.3l27,24.6c2.1,1.9,2.2,5.2,0.3,7.2C1050.4,1158.8,1049,1159.3,1047.6,1159.3z
						"/>
					<path class="st0" d="M1249.2,1343.1c-1.2,0-2.5-0.4-3.5-1.3l-12.6-11.5c-2.1-1.9-2.2-5.2-0.3-7.2c1.9-2.1,5.2-2.2,7.2-0.3
						l12.6,11.5c2.1,1.9,2.2,5.2,0.3,7.2C1252,1342.5,1250.6,1343.1,1249.2,1343.1z"/>
				</g>
				<g>
					<path class="st0" d="M1419.3,928.5c-2.3,0-4.5-1.6-5-4l-3.7-16.7c-0.6-2.8,1.1-5.5,3.9-6.1c2.8-0.6,5.5,1.1,6.1,3.9l3.7,16.7
						c0.6,2.8-1.1,5.5-3.9,6.1C1420.1,928.5,1419.7,928.5,1419.3,928.5z"/>
					<path class="st0" d="M1468.3,1150.2c-2.3,0-4.5-1.6-5-4l-8.2-36.9c-0.6-2.8,1.1-5.5,3.9-6.1c2.8-0.6,5.5,1.1,6.1,3.9l8.2,36.9
						c0.6,2.8-1.1,5.5-3.9,6.1C1469,1150.2,1468.7,1150.2,1468.3,1150.2z M1452,1076.3c-2.3,0-4.5-1.6-5-4l-8.2-36.9
						c-0.6-2.8,1.1-5.5,3.9-6.1c2.8-0.6,5.5,1.1,6.1,3.9l8.2,36.9c0.6,2.8-1.1,5.5-3.9,6.1C1452.7,1076.3,1452.3,1076.3,1452,1076.3
						z M1435.7,1002.4c-2.3,0-4.5-1.6-5-4l-8.2-37c-0.6-2.8,1.1-5.5,3.9-6.1c2.8-0.6,5.5,1.1,6.1,3.9l8.2,37
						c0.6,2.8-1.1,5.5-3.9,6.1C1436.4,1002.4,1436,1002.4,1435.7,1002.4z"/>
					<path class="st0" d="M1480.2,1203.9c-2.3,0-4.5-1.6-5-4l-3.7-16.7c-0.6-2.8,1.1-5.5,3.9-6.1c2.8-0.6,5.5,1.1,6.1,3.9l3.7,16.7
						c0.6,2.8-1.1,5.5-3.9,6.1C1480.9,1203.8,1480.5,1203.9,1480.2,1203.9z"/>
				</g>
				<g>
					<path class="st0" d="M2062.6,751.6c-0.5,0-1-0.1-1.5-0.2c-2.7-0.8-4.2-3.7-3.4-6.4l5-16.3c0.8-2.7,3.7-4.2,6.4-3.4
						c2.7,0.8,4.2,3.7,3.4,6.4l-5,16.3C2066.8,750.2,2064.8,751.6,2062.6,751.6z"/>
					<path class="st0" d="M1940.2,1150.8c-0.5,0-1-0.1-1.5-0.2c-2.7-0.8-4.2-3.7-3.4-6.4l10.2-33.3c0.8-2.7,3.7-4.2,6.4-3.4
						c2.7,0.8,4.2,3.7,3.4,6.4l-10.2,33.3C1944.4,1149.4,1942.4,1150.8,1940.2,1150.8z M1960.6,1084.3c-0.5,0-1-0.1-1.5-0.2
						c-2.7-0.8-4.2-3.7-3.4-6.4l10.2-33.3c0.8-2.7,3.7-4.2,6.4-3.4c2.7,0.8,4.2,3.7,3.4,6.4l-10.2,33.3
						C1964.8,1082.9,1962.8,1084.3,1960.6,1084.3z M1981,1017.8c-0.5,0-1-0.1-1.5-0.2c-2.7-0.8-4.2-3.7-3.4-6.4l10.2-33.3
						c0.8-2.7,3.7-4.2,6.4-3.4c2.7,0.8,4.2,3.7,3.4,6.4l-10.2,33.3C1985.2,1016.3,1983.2,1017.8,1981,1017.8z M2001.4,951.2
						c-0.5,0-1-0.1-1.5-0.2c-2.7-0.8-4.2-3.7-3.4-6.4l10.2-33.3c0.8-2.7,3.7-4.2,6.4-3.4c2.7,0.8,4.2,3.7,3.4,6.4l-10.2,33.3
						C2005.6,949.8,2003.6,951.2,2001.4,951.2z M2021.8,884.7c-0.5,0-1-0.1-1.5-0.2c-2.7-0.8-4.2-3.7-3.4-6.4l10.2-33.3
						c0.8-2.7,3.7-4.2,6.4-3.4c2.7,0.8,4.2,3.7,3.4,6.4l-10.2,33.3C2026,883.3,2024,884.7,2021.8,884.7z M2042.2,818.2
						c-0.5,0-1-0.1-1.5-0.2c-2.7-0.8-4.2-3.7-3.4-6.4l10.2-33.3c0.8-2.7,3.7-4.2,6.4-3.4c2.7,0.8,4.2,3.7,3.4,6.4l-10.2,33.3
						C2046.4,816.7,2044.4,818.2,2042.2,818.2z"/>
					<path class="st0" d="M1925,1200.5c-0.5,0-1-0.1-1.5-0.2c-2.7-0.8-4.2-3.7-3.4-6.4l5-16.3c0.8-2.7,3.7-4.2,6.4-3.4
						c2.7,0.8,4.2,3.7,3.4,6.4l-5,16.3C1929.2,1199.1,1927.2,1200.5,1925,1200.5z"/>
				</g>
			</g>
			<g>
				<g>
					<g>
						
							<linearGradient id="SVGID_6_" gradientUnits="userSpaceOnUse" x1="1325.3988" y1="3842.5793" x2="1401.7977" y2="2299.314" gradientTransform="matrix(1 0 0 -1 0 3710)">
							<stop  offset="0" style="stop-color:#FE802B"/>
							<stop  offset="1" style="stop-color:#FF6803"/>
						</linearGradient>
						<circle class="st11" cx="1367.5" cy="718.1" r="277.5"/>
						<g>
							<path class="st12" d="M1146.3,609.2c-0.4,0-0.8-0.1-1.1-0.3c-1.2-0.6-1.8-2.2-1.1-3.4c42.8-84.9,128.5-137.6,223.5-137.6
								c15.2,0,30.3,1.4,45.1,4.1c1.4,0.2,2.3,1.6,2,2.9s-1.6,2.3-2.9,2c-14.5-2.6-29.4-4-44.2-4c-93.1,0-177,51.7-218.9,134.8
								C1148.1,608.7,1147.2,609.2,1146.3,609.2z"/>
						</g>
						
							<linearGradient id="SVGID_7_" gradientUnits="userSpaceOnUse" x1="1404.8796" y1="3364.3293" x2="1493.8071" y2="4431.4692" gradientTransform="matrix(1 0 0 -1 0 3710)">
							<stop  offset="0" style="stop-color:#FEBAC6"/>
							<stop  offset="1" style="stop-color:#FF6803"/>
						</linearGradient>
						<circle class="st13" cx="1373.4" cy="723.9" r="227.1"/>
					</g>
					<g>
						<g>
							<defs>
								<circle id="SVGID_8_" cx="1369" cy="707.4" r="240.2"/>
							</defs>
							<clipPath id="SVGID_9_">
								<use xlink:href="#SVGID_8_"  style="overflow:visible;"/>
							</clipPath>
							<g class="st14">
								<g>
									<ellipse class="st0" cx="1271.6" cy="692.3" rx="66.5" ry="99.3"/>
									<path class="st0" d="M1287,773.7c-10.3,0-20.6,0-30.9,0c-2.7,111.7-5.4,222.9-8.1,336.1c-0.2,6.7,2.4,11.4,7.1,16.3
										c4.7,4.8,11.1,6.6,17.8,6.6c6,0,11.7-2.9,15.9-7.2c4.2-4.3,6.5-6.8,6.3-12.8C1292.4,998.6,1289.7,885.4,1287,773.7z"/>
								</g>
								<g>
									<path class="st0" d="M1526.4,597l-16.3,0.1v120.7h-10.5V597.2l-17.5,0.1v120.5h-20.9V597.3l-17.5-0.1v120.7h-17.5V597
										l-10.5-0.1c0,0-14,108.5-11.5,158.8c0.3,6.2,4.1,12,9.2,16.4c9.4,8.2,28.3,19.4,59.1,19.4c30.6,0,49.1-11.3,58.5-19.4
										c5-4.4,7.7-10.3,8-16.4C1541.7,705.5,1526.4,597,1526.4,597z"/>
									<path class="st0" d="M1488.1,773.7c-10.3,0-20.6,0-30.9,0c-2.7,111.7-5.4,222.9-8.1,336.1c-0.2,6.7,2.4,11.4,7.1,16.3
										c4.7,4.8,11.1,6.6,17.8,6.6c6,0,11.7-2.9,15.9-7.2c4.2-4.3,6.5-6.8,6.3-12.8C1493.5,998.6,1490.8,885.4,1488.1,773.7z"/>
								</g>
							</g>
						</g>
					</g>
				</g>
				<g>
					<g>
						
							<linearGradient id="SVGID_10_" gradientUnits="userSpaceOnUse" x1="2117.1812" y1="3770.0833" x2="1944.0094" y2="2420.3601" gradientTransform="matrix(1 0 0 -1 0 3710)">
							<stop  offset="0" style="stop-color:#FE802B"/>
							<stop  offset="1" style="stop-color:#FF6803"/>
						</linearGradient>
						<circle class="st15" cx="2016.8" cy="722.3" r="277.2"/>
						<g>
							<path class="st12" d="M1795.8,613.5c-0.4,0-0.8-0.1-1.1-0.3c-1.2-0.6-1.8-2.2-1.1-3.4c42.8-84.8,128.3-137.5,223.2-137.5
								c15.1,0,30.3,1.4,45.1,4.1c1.4,0.2,2.3,1.6,2,2.9c-0.2,1.4-1.6,2.3-2.9,2c-14.5-2.6-29.3-4-44.2-4
								c-93,0-176.8,51.6-218.7,134.7C1797.6,613,1796.7,613.5,1795.8,613.5z"/>
						</g>
						
							<linearGradient id="SVGID_11_" gradientUnits="userSpaceOnUse" x1="2050.031" y1="3310.5654" x2="2138.958" y2="4377.7012" gradientTransform="matrix(1 0 0 -1 0 3710)">
							<stop  offset="0" style="stop-color:#FEBAC6"/>
							<stop  offset="1" style="stop-color:#FF6803"/>
						</linearGradient>
						<circle class="st16" cx="2022.6" cy="728.1" r="226.8"/>
					</g>
					<g>
						<path class="st0" d="M2073.7,883.4h-115.4c-4.4,0-8-3.6-8-8V586.7c0-4.4,3.6-8,8-8h115.4c4.4,0,8,3.6,8,8v288.7
							C2081.7,879.8,2078.1,883.4,2073.7,883.4z"/>
						<path class="st0" d="M1863.6,794.8V679.3c0-4.4,3.6-8,8-8h288.7c4.4,0,8,3.6,8,8v115.4c0,4.4-3.6,8-8,8h-288.7
							C1867.2,802.8,1863.6,799.2,1863.6,794.8z"/>
					</g>
				</g>
				<g>
					<g>
						
							<linearGradient id="SVGID_12_" gradientUnits="userSpaceOnUse" x1="882.3737" y1="3825.0254" x2="887.4675" y2="1879.3914" gradientTransform="matrix(1 0 0 -1 0 3710)">
							<stop  offset="0" style="stop-color:#FE802B"/>
							<stop  offset="1" style="stop-color:#FF6803"/>
						</linearGradient>
						<circle class="st17" cx="885.5" cy="1082.9" r="277.8"/>
						<g>
							<path class="st12" d="M664.1,973.9c-0.4,0-0.8-0.1-1.1-0.3c-1.2-0.6-1.8-2.2-1.1-3.4c42.9-85,128.6-137.7,223.7-137.7
								c15.2,0,30.4,1.4,45.2,4.1c1.4,0.2,2.3,1.6,2,3s-1.6,2.3-3,2c-14.5-2.6-29.4-4-44.3-4c-93.2,0-177.1,51.7-219.2,134.9
								C665.9,973.4,665,973.9,664.1,973.9z"/>
						</g>
						
							<linearGradient id="SVGID_13_" gradientUnits="userSpaceOnUse" x1="956.3996" y1="3401.7029" x2="1045.3268" y2="4468.8394" gradientTransform="matrix(1 0 0 -1 0 3710)">
							<stop  offset="0" style="stop-color:#FEBAC6"/>
							<stop  offset="1" style="stop-color:#FF6803"/>
						</linearGradient>
						<circle class="st18" cx="891.4" cy="1088.8" r="227.3"/>
					</g>
					<path class="st0" d="M1039.6,1024.8L887.7,908.1l-151.9,116.7c-7.4,5.7-3.4,17.4,5.9,17.4h21.5c-0.2,1.2-0.4,2.5-0.4,3.8v174.2
						c0,10.6,8.6,19.3,19.3,19.3h211.2c10.6,0,19.3-8.6,19.3-19.3v-174.2c0-1.3-0.1-2.6-0.4-3.8h21.5
						C1043,1042.3,1047,1030.5,1039.6,1024.8z M937.1,1171.8h-98.7v-98.7h98.7V1171.8z"/>
				</g>
			</g>
		</g>
		<g>
			<g>
				
					<linearGradient id="SVGID_14_" gradientUnits="userSpaceOnUse" x1="-729.6871" y1="2290.2913" x2="-632.1133" y2="2011.5088" gradientTransform="matrix(-1 0 0 -1 666.6023 3710)">
					<stop  offset="0" style="stop-color:#FEBAC6"/>
					<stop  offset="1" style="stop-color:#FF6803"/>
				</linearGradient>
				<path class="st19" d="M1353,1569.2c1.5,4.8-15.9,12-26.1-7.5c-0.4-9.4-6.1-49.4-0.5-57.1c29.8-40.6,87.5-91.5,87.5-91.5
					c9.8,9.6,1.7,19.1,1.7,19.1l-28,29.2c5.9,10.6,13,19.5,16.3,32.3c2.5,9.7,1,20.1-3.9,28.9c-4.9,8.9-11.6,20.4-18,29.4
					C1370.1,1569.1,1353,1569.2,1353,1569.2z"/>
				
					<linearGradient id="SVGID_15_" gradientUnits="userSpaceOnUse" x1="-632.988" y1="2068.3267" x2="-706.4855" y2="2216.5894" gradientTransform="matrix(-1 0 0 -1 666.6023 3710)">
					<stop  offset="0" style="stop-color:#FEBAC6"/>
					<stop  offset="1" style="stop-color:#FF6803"/>
				</linearGradient>
				<path class="st20" d="M1375.4,1480.4l-25.5,21.6l-8,21.5l22.8,25.2c0,0,7.7-42.7,13.3-52
					C1383.6,1487.6,1380.7,1483.1,1375.4,1480.4z"/>
			</g>
			<g>
				
					<linearGradient id="SVGID_16_" gradientUnits="userSpaceOnUse" x1="7147.1133" y1="597.8268" x2="6524.5103" y2="-79.3909" gradientTransform="matrix(1 0 0 -1 -6098.6797 3710)">
					<stop  offset="0" style="stop-color:#00025D"/>
					<stop  offset="1" style="stop-color:#0F1491"/>
				</linearGradient>
				<path class="st21" d="M851.6,3162.6c0,0-6.5,36.5-9.6,72.6c-1.2,14.1,9.7,26.4,23.8,27c48.1,2,151,5.9,188,4.2
					c5.6-0.2,9.2-5.9,7.1-11.1c-1.7-4.3-5-7.8-9.3-9.8l-170-78.1L851.6,3162.6z"/>
				
					<linearGradient id="SVGID_17_" gradientUnits="userSpaceOnUse" x1="6945.0298" y1="547.5289" x2="7000.3296" y2="547.5289" gradientTransform="matrix(1 0 0 -1 -6098.6797 3710)">
					<stop  offset="0" style="stop-color:#FEBAC6"/>
					<stop  offset="1" style="stop-color:#FF6803"/>
				</linearGradient>
				<path class="st22" d="M846.3,3141.2l5.2,43.7c0,0,29.8,13.9,50.1-1.8l-12.3-48.7L846.3,3141.2z"/>
				
					<linearGradient id="SVGID_18_" gradientUnits="userSpaceOnUse" x1="7196.1416" y1="1363.6843" x2="6666.3657" y2="645.6418" gradientTransform="matrix(1 0 0 -1 -6098.6797 3710)">
					<stop  offset="0" style="stop-color:#4F67FF"/>
					<stop  offset="1" style="stop-color:#4056E2"/>
				</linearGradient>
				<path class="st23" d="M850.2,2320.3c-2.2,11.4-12,569,47.6,818.9c1,4.1-1.1,8.3-5,9.9c-9.1,3.7-27.1,9.1-48.5,9.9
					c-6.7,0.2-12.6-4.1-14.5-10.5c-17-58-98.7-348.4-109.3-625.9c-11.9-310.1,0-10.6,0-10.6l7-191.6L850.2,2320.3z"/>
				
					<linearGradient id="SVGID_19_" gradientUnits="userSpaceOnUse" x1="7007.4434" y1="726.2299" x2="6384.8438" y2="49.0155" gradientTransform="matrix(1 0 0 -1 -6098.6797 3710)">
					<stop  offset="0" style="stop-color:#00025D"/>
					<stop  offset="1" style="stop-color:#0F1491"/>
				</linearGradient>
				<path class="st24" d="M656,3181.7c0,0-10.3,18.4-20.2,67.4c-1.8,8.8,4.4,17.3,13.4,18.2c15.9,1.6,40.3,3.6,59.9,3.4
					c9-0.1,16.1-7.9,15-16.9c-2.2-17.9-8.9-47.2-29.8-70.1L656,3181.7z"/>
				
					<linearGradient id="SVGID_20_" gradientUnits="userSpaceOnUse" x1="6745.7197" y1="550.3574" x2="6793.4595" y2="550.3574" gradientTransform="matrix(1 0 0 -1 -6098.6797 3710)">
					<stop  offset="0" style="stop-color:#FEBAC6"/>
					<stop  offset="1" style="stop-color:#FF6803"/>
				</linearGradient>
				<path class="st25" d="M647,3125.5l12.1,66c0,0,12,8.9,35.6,2.4l-5.8-71L647,3125.5z"/>
				
					<linearGradient id="SVGID_21_" gradientUnits="userSpaceOnUse" x1="7101.7251" y1="1433.3452" x2="6571.9497" y2="715.3027" gradientTransform="matrix(1 0 0 -1 -6098.6797 3710)">
					<stop  offset="0" style="stop-color:#4F67FF"/>
					<stop  offset="1" style="stop-color:#4056E2"/>
				</linearGradient>
				<path class="st26" d="M614.3,2337.4c-48.8,294.2,10.6,727.1,30.6,811.8c1.2,5.2,5.4,9.2,10.7,10c8.9,1.5,23.6,2.7,38.1-1.5
					c5-1.4,8.5-5.9,8.7-11.1c2.7-68.5-2.2-489.1,43.3-655.2c2.3-8.4,7.4-15.8,14.6-20.8l88.2-62.7l6.8-101.3L614.3,2337.4z"/>
				<g>
					
						<linearGradient id="SVGID_22_" gradientUnits="userSpaceOnUse" x1="1108.7903" y1="2364.6152" x2="1519.2274" y2="3260.7361" gradientTransform="matrix(1 0 0 -1 0 3710)">
						<stop  offset="0" style="stop-color:#FE802B"/>
						<stop  offset="1" style="stop-color:#FF6803"/>
					</linearGradient>
					<path class="st27" d="M925,1780c-146.1-2.4-307.3,38.4-307.3,38.4c-43.5,254.1-7.6,547.1-7.6,547.1
						c113.1,29.7,240.7-18.1,240.7-18.1c18.8-106.2,106.5-405.1,106.5-405.1c71.4-8.9,130.2-29.4,178.6-56.7
						c-36.9-42.8-54.3-97.3-61.9-129.5C1022.3,1772.2,970,1780.8,925,1780z"/>
					
						<linearGradient id="SVGID_23_" gradientUnits="userSpaceOnUse" x1="-646.2808" y1="2319.4839" x2="-548.7066" y2="2040.6996" gradientTransform="matrix(-1 0 0 -1 666.6023 3710)">
						<stop  offset="0" style="stop-color:#FEBAC6"/>
						<stop  offset="1" style="stop-color:#FF6803"/>
					</linearGradient>
					<path class="st28" d="M1356.4,1564.8c-14.3-17.3-32.5-9.1-32.5-9.1c-21.5,90.8-134.2,164.4-250,200.4
						c7.6,32.2,25,86.7,61.9,129.5C1328,1777.6,1356.4,1564.8,1356.4,1564.8z"/>
				</g>
				
					<linearGradient id="SVGID_24_" gradientUnits="userSpaceOnUse" x1="903.323" y1="2458.7261" x2="1313.7609" y2="3354.8484" gradientTransform="matrix(1 0 0 -1 0 3710)">
					<stop  offset="0" style="stop-color:#FE802B"/>
					<stop  offset="1" style="stop-color:#FF6803"/>
				</linearGradient>
				<path class="st29" d="M673.7,1959.8l-56-141.4c0,0-136.5,92.7-158.9,210.3c25.8,1.9,72.7,8.6,118.6,31.8
					C587.5,2004.9,673.7,1959.8,673.7,1959.8z"/>
				
					<linearGradient id="SVGID_25_" gradientUnits="userSpaceOnUse" x1="6828.9097" y1="1972.3517" x2="6970.2695" y2="1972.3517" gradientTransform="matrix(1 0 0 -1 -6098.6797 3710)">
					<stop  offset="0" style="stop-color:#FEBAC6"/>
					<stop  offset="1" style="stop-color:#FF6803"/>
				</linearGradient>
				<path class="st30" d="M777,1661.4l-46.5,134.4c-0.8,2.2,0.2,4.7,2.2,5.8c12.7,7,58.3,27.2,113.3-7.6c5.7-3.6,9.6-9.6,10.5-16.3
					l15-116.3H777z"/>
				<g>
					
						<linearGradient id="SVGID_26_" gradientUnits="userSpaceOnUse" x1="871.5887" y1="893.2473" x2="818.7634" y2="1067.4775" gradientTransform="matrix(0.746 -0.6659 -0.6659 -0.746 849.816 2894.4778)">
						<stop  offset="0" style="stop-color:#FEBAC6"/>
						<stop  offset="1" style="stop-color:#FF6803"/>
					</linearGradient>
					<path class="st31" d="M878.1,1536.9c0,0,51,96.1,44.5,134.9s-69.8,36-125,4.5L759,1572.6L878.1,1536.9z"/>
					
						<linearGradient id="SVGID_27_" gradientUnits="userSpaceOnUse" x1="845.2348" y1="2274.9194" x2="719.5942" y2="1982.8893" gradientTransform="matrix(1 0 0 -1 0 3710)">
						<stop  offset="0" style="stop-color:#E07F00"/>
						<stop  offset="1" style="stop-color:#E9B25A"/>
					</linearGradient>
					<path class="st32" d="M800,1625.4c2.2-1,3.1-3.7,1.7-5.8c-4.1-6.2-11.8-19-14.2-30.2c0,0-9.2-5.9,23.3-13.7
						c32.5-7.8,81-19.9,91.2-47.6c9.9-27-16.2-94.9-57.8-40.8c-1.6,2.1-4.7,2.1-6.3,0c-6.8-8.9-24.8-27.3-49.7-16.2
						c-23.3,10.5-26,27.6-25.6,36.2c0.1,2.5-2.2,4.5-4.7,4c-11.8-2.2-40.1-4.2-53.3,24.9c-10.9,23.9-3.8,37.5,2.6,44.1
						c2.1,2.2,1.2,5.7-1.7,6.6c-7.8,2.4-17.8,8.9-16.8,27.1c1.4,25.1,29.5,22.9,37.5,21.8c1.3-0.2,2.6,0.3,3.5,1.2
						c6.8,7.6,37.7,39.8,71.2,43.7c2.9,0.3,5.1-2.5,4.2-5.3l-14.5-42.1c-0.7-1.9,0.3-4.1,2.2-4.9L800,1625.4z"/>
					
						<linearGradient id="SVGID_28_" gradientUnits="userSpaceOnUse" x1="817.5921" y1="894.0599" x2="770.0643" y2="1050.8177" gradientTransform="matrix(0.746 -0.6659 -0.6659 -0.746 849.816 2894.4778)">
						<stop  offset="0" style="stop-color:#FEBAC6"/>
						<stop  offset="1" style="stop-color:#FF6803"/>
					</linearGradient>
					<path class="st33" d="M805.8,1631.3c0,0-36.3-24.9-39-3.9c-2.7,21,32.7,30.4,50.2,22.6L805.8,1631.3z"/>
				</g>
				
					<linearGradient id="SVGID_29_" gradientUnits="userSpaceOnUse" x1="497.5502" y1="1286.0957" x2="545.4341" y2="1904.0314" gradientTransform="matrix(1 0 0 -1 0 3710)">
					<stop  offset="0" style="stop-color:#FEBAC6"/>
					<stop  offset="1" style="stop-color:#FF6803"/>
				</linearGradient>
				<path class="st34" d="M577.4,2060.4c0,0-47.7,215.1-4.5,336.1c-53,24.6-43.2,19.9-43.2,19.9s-104.8-306.1-71-387.8
					C525.5,2021.6,558.6,2039.5,577.4,2060.4z"/>
				
					<linearGradient id="SVGID_30_" gradientUnits="userSpaceOnUse" x1="562.2184" y1="1281.0845" x2="610.1022" y2="1899.0215" gradientTransform="matrix(1 0 0 -1 0 3710)">
					<stop  offset="0" style="stop-color:#FEBAC6"/>
					<stop  offset="1" style="stop-color:#FF6803"/>
				</linearGradient>
				<path class="st35" d="M572.9,2396.5c0,0,27.3,35.3,25.1,49.4c-2.2,14.1-2.7,19.8-2.7,19.8s-13.7-9.4-12.8-21.4
					c1.9,38,14.6,81.3,3.1,79.2c-11.6-2.1-71.5-57.3-58-116.2C558.3,2386,566.9,2388.3,572.9,2396.5z"/>
			</g>
		</g>
		<g>
			<g>
				
					<linearGradient id="SVGID_31_" gradientUnits="userSpaceOnUse" x1="2632.1907" y1="1502.2454" x2="3260.377" y2="1502.2454" gradientTransform="matrix(1 0 0 -1 0 3710)">
					<stop  offset="0" style="stop-color:#4F67FF"/>
					<stop  offset="1" style="stop-color:#4056E2"/>
				</linearGradient>
				<path class="st36" d="M2632.3,2625c0.7,9.8,6.2,22.7,15.4,27.2c35.4,17.7,80.7-109.8,192.3-205.1
					c129.2-110.4,236-82.5,268.4-185.3c15.6-49.4-4-72,21.2-124.4c35.1-72.9,90.4-64.9,117.4-122.4c31.1-66.2,6.4-179.7-58.6-228
					c-87.4-65-224.1,5.3-266.1,93.4c-27.3,57.2-18.3,129.4-34.6,130.1c-15.6,0.7-18.4-65.3-54-81.9
					c-46.6-21.8-139.2,45.8-142.7,121.4c-3.2,69.6,69.5,138.8,56.4,152c-5.1,5.2-16.4-5.5-24.3-1.4c-14.1,7.3-11.2,58.5,40.9,217.6
					c-0.5,51.9-14.6,83.7-27.6,103.3C2697.7,2579.3,2629.7,2587.7,2632.3,2625z"/>
				<path class="st7" d="M3126.9,1925.4c-29.2,18.9-56.5,40.9-80.6,66.2c-24.2,25.2-45.1,53.8-62.1,84.9
					c-8.5,15.6-16.2,31.8-23.4,48.4c-3.5,8.4-7.1,16.6-10.4,25.1c-3.4,8.4-6.8,16.9-10.1,25.4l-20,51.2l-5.1,12.8l-5.3,12.7
					c-3.5,8.5-7.2,16.9-10.9,25.3c-7.3,16.8-15.1,33.4-23.1,49.9c-4,8.2-8,16.4-12.3,24.5l-6.3,12.1l-6.5,12l-6.5,12l-6.7,11.9
					l-6.7,11.9l-6.9,11.7l-7,11.7l-7.2,11.5c-4.8,7.7-9.6,15.3-14.6,22.8l-7.5,11.3l-3.7,5.6l-3.9,5.5c-5.2,7.3-10.4,14.7-15.7,21.9
					l-16.3,21.4c-5.5,7.1-11.3,13.9-16.9,20.8c-23,27.3-47.5,53.1-74.1,76.2l-1.3-1.6c24.4-25.5,47.2-52.7,68.5-81.1l7.9-10.8
					c2.6-3.6,5.4-7.1,7.9-10.8l15.2-22c9.8-14.9,19.6-29.9,28.9-45.2c4.8-7.6,9.3-15.3,13.8-23.1l6.8-11.6l6.6-11.8l6.6-11.7
					l6.4-11.9l6.4-11.9l6.2-12c16.4-32.1,32.1-64.7,46.5-98c14.4-33.3,27.7-67.2,41.3-101.3c3.4-8.5,6.8-17,10.4-25.5
					c3.5-8.5,7.4-16.9,11.1-25.3c7.8-16.7,16-33.2,25.2-49c2.3-3.9,4.8-7.8,7.3-11.6l3.7-5.8l3.9-5.6c2.6-3.7,5.1-7.5,7.9-11.2
					l8.3-10.7c2.7-3.7,5.8-6.9,8.7-10.3l4.5-5.1c1.5-1.7,2.9-3.4,4.6-5c6.3-6.4,12.4-12.9,19-18.9c26.2-24.1,55.4-44.4,86.7-59.8
					L3126.9,1925.4z"/>
			</g>
			
				<linearGradient id="SVGID_32_" gradientUnits="userSpaceOnUse" x1="2252.1101" y1="1576.9701" x2="2705.54" y2="1576.9701" gradientTransform="matrix(1 0 0 -1 0 3710)">
				<stop  offset="0" style="stop-color:#DAEBFE"/>
				<stop  offset="1" style="stop-color:#E9F3FD"/>
			</linearGradient>
			<path class="st37" d="M2252.1,1798.7c122.2,8.9,279.3,8.4,453.4,3.4l-67.2,648.2l-371.9,17L2252.1,1798.7z"/>
			<path class="st2" d="M2252.1,1845.8c122.2,8.9,279.3,8.4,453.4,3.4l-67.2,648.2l-371.9,17L2252.1,1845.8z"/>
			<g>
				
					<linearGradient id="SVGID_33_" gradientUnits="userSpaceOnUse" x1="805.1411" y1="-16.7838" x2="864.4351" y2="-2109.8289" gradientTransform="matrix(0.9386 0.345 0.345 -0.9386 2233.5989 1075.0167)">
					<stop  offset="0" style="stop-color:#FEBAC6"/>
					<stop  offset="1" style="stop-color:#FF6803"/>
				</linearGradient>
				<path class="st38" d="M2890.1,2225.2c-82.6,278.5-224.9,470-318,427.6c-93.1-42.4-101.6-302.5-19-581.1s224.9-470,318-427.6
					S2972.7,1946.7,2890.1,2225.2z"/>
				
					<linearGradient id="SVGID_34_" gradientUnits="userSpaceOnUse" x1="8296.3184" y1="6856.0859" x2="7747.418" y2="6209.7168" gradientTransform="matrix(0.761 0.6488 0.6488 -0.761 2767.073 26.4302)">
					<stop  offset="0" style="stop-color:#FE802B"/>
					<stop  offset="1" style="stop-color:#FF6803"/>
				</linearGradient>
				<path class="st39" d="M2875.3,2022.8c-7.7,11.5-51.3-19.4-97.2-69.1c-46-49.7-76.9-99.2-69.2-110.7s51.3,19.4,97.2,69.1
					S2883.1,2011.3,2875.3,2022.8z"/>
				
					<linearGradient id="SVGID_35_" gradientUnits="userSpaceOnUse" x1="8399.1768" y1="6768.7354" x2="7850.2764" y2="6122.3662" gradientTransform="matrix(0.761 0.6488 0.6488 -0.761 2767.073 26.4302)">
					<stop  offset="0" style="stop-color:#FE802B"/>
					<stop  offset="1" style="stop-color:#FF6803"/>
				</linearGradient>
				<path class="st40" d="M2825.9,2167.5c-7.7,11.5-51.3-19.4-97.2-69.1c-46-49.6-76.9-99.2-69.2-110.7s51.3,19.4,97.2,69.1
					C2802.6,2106.4,2833.6,2156,2825.9,2167.5z"/>
				
					<linearGradient id="SVGID_36_" gradientUnits="userSpaceOnUse" x1="8489.5566" y1="6691.9722" x2="7940.6562" y2="6045.603" gradientTransform="matrix(0.761 0.6488 0.6488 -0.761 2767.073 26.4302)">
					<stop  offset="0" style="stop-color:#FE802B"/>
					<stop  offset="1" style="stop-color:#FF6803"/>
				</linearGradient>
				<path class="st41" d="M2777.6,2295.5c-7.7,11.5-51.3-19.4-97.2-69.1c-46-49.6-76.9-99.2-69.2-110.7s51.3,19.4,97.2,69.1
					S2785.3,2284,2777.6,2295.5z"/>
				
					<linearGradient id="SVGID_37_" gradientUnits="userSpaceOnUse" x1="8577.6182" y1="6617.1743" x2="8028.7183" y2="5970.8057" gradientTransform="matrix(0.761 0.6488 0.6488 -0.761 2767.073 26.4302)">
					<stop  offset="0" style="stop-color:#FE802B"/>
					<stop  offset="1" style="stop-color:#FF6803"/>
				</linearGradient>
				<path class="st42" d="M2724.2,2421.2c-7.7,11.5-51.3-19.4-97.2-69.1c-46-49.6-76.9-99.2-69.2-110.7s51.3,19.4,97.2,69.1
					S2732,2409.7,2724.2,2421.2z"/>
			</g>
			<g>
				
					<linearGradient id="SVGID_38_" gradientUnits="userSpaceOnUse" x1="3550.0835" y1="2307.8438" x2="3139.666" y2="2061.5928" gradientTransform="matrix(1 0 0 -1 0 3710)">
					<stop  offset="0" style="stop-color:#4F67FF"/>
					<stop  offset="1" style="stop-color:#4056E2"/>
				</linearGradient>
				<path class="st43" d="M2272.4,1952.4l6.2-290.6l-107.3-2.3l-6.2,291.9c-12.3,9.3-63.7,49.4-64.1,70.4
					c-0.4,21.3-11.8,554.8-14.2,669.8c-0.3,13.7,9.9,26.3,22.4,31.9c21.5,9.6,57.9,22.6,91.6,23.4c33.7,0.7,67.8-10.8,89.7-19.5
					c12.7-5,19.5-17.3,19.8-31l14.3-675.7C2324.6,2020.6,2324.5,1988.8,2272.4,1952.4z"/>
				<path class="st7" d="M2273.7,2171.6l-119.2-2.5c-6.6-0.1-12,5.1-12.2,11.7l-6.8,318.9c-0.1,6.6,5.1,12,11.7,12.2l119.2,2.5
					c6.6,0.1,12-5.1,12.2-11.7l6.8-318.9C2285.5,2177.2,2280.3,2171.8,2273.7,2171.6z"/>
				
					<linearGradient id="SVGID_39_" gradientUnits="userSpaceOnUse" x1="2417.946" y1="2393.2993" x2="2301.6553" y2="2109.4131" gradientTransform="matrix(1 0 0 -1 0 3710)">
					<stop  offset="0" style="stop-color:#00025D"/>
					<stop  offset="1" style="stop-color:#0F1491"/>
				</linearGradient>
				<polygon class="st44" points="2274.2,1867.5 2166.9,1865.2 2170,1722.2 2277.2,1724.4 				"/>
				
					<linearGradient id="SVGID_40_" gradientUnits="userSpaceOnUse" x1="2379.281" y1="2409.1379" x2="2262.99" y2="2125.2515" gradientTransform="matrix(1 0 0 -1 0 3710)">
					<stop  offset="0" style="stop-color:#00025D"/>
					<stop  offset="1" style="stop-color:#0F1491"/>
				</linearGradient>
				<path class="st45" d="M2272.6,1625.9l-93.9-2c-8.6-0.2-15.8,6.7-16,15.3l-1.6,76c-0.2,8.6,6.7,15.8,15.3,16l93.9,2
					c8.6,0.2,15.8-6.7,16-15.3l1.6-76C2288.1,1633.3,2281.3,1626.1,2272.6,1625.9z"/>
			</g>
			<g>
				
					<linearGradient id="SVGID_41_" gradientUnits="userSpaceOnUse" x1="2156.6426" y1="1956.1779" x2="2416.5806" y2="1575.7808" gradientTransform="matrix(1 0 0 -1 0 3710)">
					<stop  offset="0" style="stop-color:#E07F00"/>
					<stop  offset="1" style="stop-color:#E9B25A"/>
				</linearGradient>
				<path class="st46" d="M2471.5,2031c-18.5,6.9-38.9,7.1-57.6,0.8c-20.8-7-54.6-8.5-105.9,14.5c-100.5,45-96.9,241.5,45.7,270.9
					c186.2,38.4,273.6-53.9,289.7-120.2c16.1-66.4-26.5-150.8-109.1-168.8C2507.2,2022.2,2486.4,2025.4,2471.5,2031z"/>
				<path class="st47" d="M2342.8,2061c16.4,1.1,46.9,8,18.9,43.8c-28,35.8-51.4,94.8-39.5,133.1s-65.7-9-70.2-60
					S2291.9,2057.7,2342.8,2061z"/>
				
					<linearGradient id="SVGID_42_" gradientUnits="userSpaceOnUse" x1="2478.5908" y1="1701.0942" x2="2426.05" y2="1635.0282" gradientTransform="matrix(1 0 0 -1 0 3710)">
					<stop  offset="0" style="stop-color:#FE802B"/>
					<stop  offset="1" style="stop-color:#FF6803"/>
				</linearGradient>
				<path class="st48" d="M2496.6,2053.3c0,9.3-24,16.9-53.6,16.9s-53.6-7.6-53.6-16.9s24,0,53.6,0S2496.6,2044,2496.6,2053.3z"/>
				<path class="st7" d="M2429.1,2051.1c0,0-17.1-70.8,63.8-116.1s79.1-49.4,83.5-25.4c4.4,24,28.8,108.9-59.8,145.4
					C2427.9,2091.4,2429.1,2051.1,2429.1,2051.1z"/>
				<path class="st4" d="M2561.8,1912.1c-12.7,20.7-71.6,113.9-123.4,150.7c0,0,61.5,7.9,105.6-33.4c37.7-35.3,25.8-99.1,21.6-116.8
					C2565,1910.9,2562.7,1910.6,2561.8,1912.1z"/>
				
					<linearGradient id="SVGID_43_" gradientUnits="userSpaceOnUse" x1="2848.2354" y1="2400.3633" x2="2646.4365" y2="2065.1726" gradientTransform="matrix(1 0 0 -1 0 3710)">
					<stop  offset="0" style="stop-color:#00025D"/>
					<stop  offset="1" style="stop-color:#0F1491"/>
				</linearGradient>
				<path class="st49" d="M2439.3,2064.2c1.7,11.6,11.6-1.2,6.9-24.3c-4.6-23.1-9.4-78-42.8-68.4S2432.3,2015.1,2439.3,2064.2z"/>
			</g>
			<g>
				
					<linearGradient id="SVGID_44_" gradientUnits="userSpaceOnUse" x1="2529.6711" y1="1143.3492" x2="3542.082" y2="1478.5387" gradientTransform="matrix(1 0 0 -1 0 3710)">
					<stop  offset="0" style="stop-color:#FE802B"/>
					<stop  offset="1" style="stop-color:#FF6803"/>
				</linearGradient>
				<path class="st50" d="M2248.5,2558.9l-36.6,448.9l-5.9,105.6c-12.9,68.1-26.6,115.8-39,116c-28.8,0.5-69.7-51.7-100.4-94.4
					c-12.4-17.4-23.1-33.2-30.7-43.2c-26.1-34.8,6.5-347.6,15.2-388.9c8.7-41.3,14.5-364.3,11.6-380.2
					c-2.9-15.9,23.2-152.1,23.2-152.1l38.1,43.4l2.5,2.9l57.9-33.3l26.1,40.6C2210.4,2224.3,2234.7,2429,2248.5,2558.9z"/>
				
					<linearGradient id="SVGID_45_" gradientUnits="userSpaceOnUse" x1="2660.3376" y1="1784.0826" x2="2660.3376" y2="853.7566" gradientTransform="matrix(1 0 0 -1 0 3710)">
					<stop  offset="0" style="stop-color:#FE802B"/>
					<stop  offset="1" style="stop-color:#FF6803"/>
				</linearGradient>
				<path class="st51" d="M3157.4,3131.2c1,35.5-17.4,67-45.6,84.6c-13.6,8.4-29.5,13.6-46.8,14.3c-265.1,11-878,74.5-898.1-0.7
					c-23.1-86.9,66.6-480.8,63.8-530.1c-2.9-49.2-20.3-475-20.3-475l44.8,11.1l13.2,3.3l95.6-43.4l84,46.4l110-46.4l84,49.3l84-34.8
					l69.5,34.8l86.9-49.3l55,43.4l89.8-43.4l52.1,49.3l55.1-49.3l2.9,46.4C3137.4,2241.6,3150.9,2881.1,3157.4,3131.2z"/>
			</g>
		</g>
		<g>
			
				<linearGradient id="SVGID_46_" gradientUnits="userSpaceOnUse" x1="1733.8307" y1="2258.8428" x2="1813.6379" y2="2694.363" gradientTransform="matrix(1 0 0 -1 0 3710)">
				<stop  offset="0" style="stop-color:#FE802B"/>
				<stop  offset="1" style="stop-color:#FF6803"/>
			</linearGradient>
			<circle class="st52" cx="1678.6" cy="1752.6" r="259.5"/>
			
				<linearGradient id="SVGID_47_" gradientUnits="userSpaceOnUse" x1="2213.9939" y1="2112.2715" x2="1184.5869" y2="557.1313" gradientTransform="matrix(0.9994 3.490000e-02 3.490000e-02 -0.9994 -408.2177 3506.5364)">
				<stop  offset="0" style="stop-color:#FEBAC6"/>
				<stop  offset="1" style="stop-color:#FF6803"/>
			</linearGradient>
			<circle class="st53" cx="1678.6" cy="1752.6" r="250.9"/>
			<path class="st12" d="M1475.3,1645.9c-0.7,0-1.4-0.2-2.1-0.6c-2.3-1.2-3.1-4.1-1.8-6.4c43.2-78.7,125.8-125.7,215.5-122.5
				c14.3,0.5,28.6,2.3,42.5,5.3c2.5,0.6,4.1,3.1,3.6,5.6c-0.6,2.5-3,4.1-5.6,3.6c-13.3-2.9-27.1-4.6-40.8-5.1
				c-86.1-3-165.4,42.1-206.9,117.7C1478.7,1645,1477,1645.9,1475.3,1645.9z"/>
			
				<ellipse transform="matrix(0.7071 -0.7071 0.7071 0.7071 -750.0612 1705.6324)" class="st54" cx="1683.8" cy="1758.2" rx="212.4" ry="212.4"/>
			<g>
				
					<linearGradient id="SVGID_48_" gradientUnits="userSpaceOnUse" x1="1125.0396" y1="2184.6001" x2="602.999" y2="1308.1805" gradientTransform="matrix(0.9554 0.2953 0.2953 -0.9554 174.1485 3333.5596)">
					<stop  offset="0" style="stop-color:#FE802B"/>
					<stop  offset="1" style="stop-color:#FF6803"/>
				</linearGradient>
				<path class="st55" d="M1657.5,1915.3l0.8-23.1c-24-1.8-47.7-8.3-64.3-16.3c-5.9-2.8-8.8-9.7-6.8-16l6.6-21.3
					c2.4-7.8,11.2-11.6,18.6-8.2c16.5,7.6,37.1,13.9,59.4,14.7c23.2,0.8,40.8-6.4,41.3-22.6c0.5-14.5-12.6-23.7-44.5-33.4
					c-45.5-14.2-77.8-35.4-76.4-75.8c1.3-36.6,29-63.5,75.6-69.4l0.8-23.1c0.3-7.4,6.5-13.2,13.9-13l13.6,0.5
					c7.4,0.3,13.2,6.5,13,13.9l-0.7,20.7c22.2,1.7,38.3,6,51,11c6.5,2.6,9.9,9.8,7.8,16.4l-6.1,19.7c-2.3,7.6-10.7,11.5-18,8.4
					c-11.7-4.9-28.3-10.1-50.1-10.9c-27.5-1-35.8,10.2-36.1,20.4c-0.4,12.6,15.8,21.8,51.1,34.1c50.6,17.1,71,39.1,69.7,77.2
					c-1.2,35-28.2,65.5-78.8,71.6l-0.9,25.8c-0.3,7.4-6.5,13.2-13.9,13l-13.6-0.5C1663.1,1928.9,1657.3,1922.7,1657.5,1915.3z"/>
			</g>
		</g>
	</g>
</g>
</svg>
